<svg xmlns="http://www.w3.org/2000/svg" width="130" height="40" viewBox="0 0 192 64">
  <g fill="none" fill-rule="evenodd">
    <g transform="translate(0 4)">
      <rect width="56" height="56" fill="#FFC107" rx="6"/>
      <g transform="translate(8 8)">
        <path fill="#0F9D58" d="M40,14.2 L28,28 L40,14.2 Z"/>
        <path fill="#4285F4" d="M28,28 L40,41.8 L40,14.2 L28,28 Z"/>
        <path fill="#EA4335" d="M14,42 L26,28 L14,14 L14,42 Z"/>
        <path fill="#188038" d="M0,28 L12,14 L0,14 L0,28 Z"/>
        <path fill="#1967D2" d="M0,28 L12,42 L12,14 L0,28 Z"/>
        <path fill="#E94235" d="M14,14 L26,28 L14,42 C14,42 0,28 0,28 L14,14 Z"/>
        <path fill="#34A853" d="M28,28 L40,14.2 C40,14.2 30.4,14 26,14 C24.3,14 14,14 14,14 L28,28 Z"/>
        <path fill="#4285F4" d="M26,42 C30.4,42 40,42 40,42 L28,28 L26,42 Z"/>
        <path fill="#174EA6" d="M12.5,41 C19.4,41 26,42 26,42 L14,28 L12.5,41 Z"/>
      </g>
    </g>
    <path fill="#5F6368" d="M70.934,32.332 L70.934,17.576 L74.402,17.576 C76.43,17.576 78.066,18.256 79.31,19.616 C80.554,20.976 81.176,22.684 81.176,24.74 L81.176,25.168 C81.176,27.224 80.558,28.932 79.322,30.292 C78.086,31.652 76.454,32.332 74.426,32.332 L70.934,32.332 Z M73.406,19.724 L73.406,30.196 L74.426,30.196 C75.698,30.196 76.698,29.736 77.426,28.816 C78.154,27.896 78.524,26.664 78.536,25.12 L78.536,24.74 C78.536,23.132 78.166,21.88 77.426,20.984 C76.686,20.088 75.686,19.64 74.426,19.64 L73.406,19.724 Z M87.682,32.548 C86.258,32.548 85.066,32.036 84.106,31.012 C83.146,29.988 82.666,28.636 82.666,26.956 L82.666,26.644 C82.666,24.964 83.142,23.6 84.094,22.552 C85.046,21.504 86.246,20.98 87.694,20.98 C89.078,20.98 90.158,21.464 90.934,22.432 C91.71,23.4 92.098,24.78 92.098,26.572 L92.098,27.676 L85.066,27.676 C85.138,28.492 85.394,29.12 85.834,29.56 C86.274,30 86.854,30.22 87.574,30.22 C88.702,30.22 89.534,29.784 90.07,28.912 L91.87,30.412 C91.402,31.116 90.778,31.656 89.998,32.032 C89.218,32.408 88.49,32.548 87.682,32.548 Z M85.066,25.708 L89.818,25.708 L89.818,25.48 C89.794,24.776 89.626,24.224 89.314,23.824 C89.002,23.424 88.49,23.224 87.778,23.224 C87.13,23.224 86.618,23.452 86.242,23.908 C85.866,24.364 85.626,24.964 85.522,25.708 L85.066,25.708 Z M97.33,32.332 L94.93,32.332 L94.93,16.4 L97.33,16.4 L97.33,32.332 Z M104.698,32.548 C103.274,32.548 102.082,32.036 101.122,31.012 C100.162,29.988 99.682,28.636 99.682,26.956 L99.682,26.644 C99.682,24.964 100.158,23.6 101.11,22.552 C102.062,21.504 103.262,20.98 104.71,20.98 C106.094,20.98 107.174,21.464 107.95,22.432 C108.726,23.4 109.114,24.78 109.114,26.572 L109.114,27.676 L102.082,27.676 C102.154,28.492 102.41,29.12 102.85,29.56 C103.29,30 103.87,30.22 104.59,30.22 C105.718,30.22 106.55,29.784 107.086,28.912 L108.886,30.412 C108.418,31.116 107.794,31.656 107.014,32.032 C106.234,32.408 105.506,32.548 104.698,32.548 Z M102.082,25.708 L106.834,25.708 L106.834,25.48 C106.81,24.776 106.642,24.224 106.33,23.824 C106.018,23.424 105.506,23.224 104.794,23.224 C104.146,23.224 103.634,23.452 103.258,23.908 C102.882,24.364 102.642,24.964 102.538,25.708 L102.082,25.708 Z M114.346,32.332 L111.946,32.332 L111.946,21.196 L114.346,21.196 L114.346,32.332 Z M111.754,18.38 C111.754,17.94 111.898,17.576 112.186,17.288 C112.474,17 112.862,16.856 113.35,16.856 C113.838,16.856 114.226,17 114.514,17.288 C114.802,17.576 114.946,17.94 114.946,18.38 C114.946,18.82 114.802,19.184 114.514,19.472 C114.226,19.76 113.838,19.904 113.35,19.904 C112.862,19.904 112.474,19.76 112.186,19.472 C111.898,19.184 111.754,18.82 111.754,18.38 Z M119.578,21.196 L119.674,22.66 C120.39,21.54 121.402,20.98 122.71,20.98 C123.862,20.98 124.722,21.324 125.29,22.012 C125.858,22.7 126.146,23.756 126.146,25.18 L126.146,32.332 L123.746,32.332 L123.746,25.24 C123.746,24.536 123.614,24.04 123.35,23.752 C123.086,23.464 122.63,23.32 121.982,23.32 C121.142,23.32 120.534,23.732 120.158,24.556 L120.158,32.332 L117.758,32.332 L117.758,21.196 L119.578,21.196 Z M131.378,32.332 L128.978,32.332 L128.978,21.196 L131.378,21.196 L131.378,32.332 Z M128.786,18.38 C128.786,17.94 128.93,17.576 129.218,17.288 C129.506,17 129.894,16.856 130.382,16.856 C130.87,16.856 131.258,17 131.546,17.288 C131.834,17.576 131.978,17.94 131.978,18.38 C131.978,18.82 131.834,19.184 131.546,19.472 C131.258,19.76 130.87,19.904 130.382,19.904 C129.894,19.904 129.506,19.76 129.218,19.472 C128.93,19.184 128.786,18.82 128.786,18.38 Z M139.81,32.548 C138.386,32.548 137.194,32.036 136.234,31.012 C135.274,29.988 134.794,28.636 134.794,26.956 L134.794,26.644 C134.794,24.964 135.27,23.6 136.222,22.552 C137.174,21.504 138.374,20.98 139.822,20.98 C141.206,20.98 142.286,21.464 143.062,22.432 C143.838,23.4 144.226,24.78 144.226,26.572 L144.226,27.676 L137.194,27.676 C137.266,28.492 137.522,29.12 137.962,29.56 C138.402,30 138.982,30.22 139.702,30.22 C140.83,30.22 141.662,29.784 142.198,28.912 L143.998,30.412 C143.53,31.116 142.906,31.656 142.126,32.032 C141.346,32.408 140.618,32.548 139.81,32.548 Z M137.194,25.708 L141.946,25.708 L141.946,25.48 C141.922,24.776 141.754,24.224 141.442,23.824 C141.13,23.424 140.618,23.224 139.906,23.224 C139.258,23.224 138.746,23.452 138.37,23.908 C137.994,24.364 137.754,24.964 137.65,25.708 L137.194,25.708 Z M149.338,17.072 L149.338,21.196 L151.306,21.196 L151.306,23.308 L149.338,23.308 L149.338,28.744 C149.338,29.208 149.422,29.536 149.59,29.728 C149.758,29.92 150.082,30.016 150.562,30.016 C150.922,30.016 151.218,30 151.45,29.968 L151.45,32.164 C150.878,32.32 150.286,32.464 149.686,32.452 C147.45,32.452 146.314,31.344 146.254,29.128 L146.254,23.308 L144.634,23.308 L144.634,21.196 L146.254,21.196 L146.254,17.072 L149.338,17.072 Z M160.774,27.952 L160.774,21.196 L163.174,21.196 L163.174,32.332 L160.894,32.332 L160.774,30.964 C160.07,32.02 159.094,32.548 157.846,32.548 C156.77,32.548 155.89,32.196 155.206,31.492 C154.522,30.788 154.174,29.736 154.162,28.336 L154.162,21.196 L156.562,21.196 L156.562,28.24 C156.562,29.752 157.174,30.508 158.398,30.508 C159.55,30.508 160.306,30.04 160.666,29.104 L160.774,27.952 Z M167.242,21.196 L167.338,22.66 C168.054,21.54 169.066,20.98 170.374,20.98 C171.526,20.98 172.386,21.324 172.954,22.012 C173.522,22.7 173.81,23.756 173.81,25.18 L173.81,32.332 L171.41,32.332 L171.41,25.24 C171.41,24.536 171.278,24.04 171.014,23.752 C170.75,23.464 170.294,23.32 169.646,23.32 C168.806,23.32 168.198,23.732 167.822,24.556 L167.822,32.332 L165.422,32.332 L165.422,21.196 L167.242,21.196 Z M181.33,32.548 C179.906,32.548 178.714,32.036 177.754,31.012 C176.794,29.988 176.314,28.636 176.314,26.956 L176.314,26.644 C176.314,24.964 176.79,23.6 177.742,22.552 C178.694,21.504 179.894,20.98 181.342,20.98 C182.726,20.98 183.806,21.464 184.582,22.432 C185.358,23.4 185.746,24.78 185.746,26.572 L185.746,27.676 L178.714,27.676 C178.786,28.492 179.042,29.12 179.482,29.56 C179.922,30 180.502,30.22 181.222,30.22 C182.35,30.22 183.182,29.784 183.718,28.912 L185.518,30.412 C185.05,31.116 184.426,31.656 183.646,32.032 C182.866,32.408 182.138,32.548 181.33,32.548 Z M178.714,25.708 L183.466,25.708 L183.466,25.48 C183.442,24.776 183.274,24.224 182.962,23.824 C182.65,23.424 182.138,23.224 181.426,23.224 C180.778,23.224 180.266,23.452 179.89,23.908 C179.514,24.364 179.274,24.964 179.17,25.708 L178.714,25.708 Z M191.446,32.332 L189.046,32.332 L189.046,16.4 L191.446,16.4 L191.446,32.332 Z M74.63,44.308 C75.658,44.308 76.486,44.528 77.114,44.968 C77.742,45.408 78.074,46.016 78.11,46.792 L75.89,46.792 C75.85,46.496 75.71,46.268 75.47,46.108 C75.23,45.948 74.926,45.868 74.558,45.868 C74.242,45.868 74.002,45.932 73.838,46.06 C73.674,46.188 73.592,46.368 73.592,46.6 C73.592,46.832 73.706,47.016 73.934,47.152 C74.162,47.288 74.578,47.412 75.182,47.524 C75.838,47.644 76.374,47.78 76.79,47.932 C77.206,48.084 77.562,48.336 77.858,48.688 C78.154,49.04 78.302,49.516 78.302,50.116 C78.302,50.98 77.986,51.656 77.354,52.144 C76.722,52.632 75.866,52.876 74.786,52.876 C73.67,52.876 72.774,52.648 72.098,52.192 C71.422,51.736 71.062,51.092 71.018,50.26 L73.334,50.26 C73.358,50.596 73.494,50.852 73.742,51.028 C73.99,51.204 74.33,51.292 74.762,51.292 C75.094,51.292 75.354,51.224 75.542,51.088 C75.73,50.952 75.824,50.768 75.824,50.536 C75.824,50.288 75.706,50.1 75.47,49.972 C75.234,49.844 74.814,49.72 74.21,49.6 C73.562,49.472 73.03,49.332 72.614,49.18 C72.198,49.028 71.846,48.776 71.558,48.424 C71.27,48.072 71.126,47.592 71.126,46.984 C71.126,46.152 71.434,45.5 72.05,45.028 C72.666,44.548 73.526,44.308 74.63,44.308 Z M83.342,52.876 C81.942,52.876 80.81,52.444 79.946,51.58 C79.082,50.716 78.65,49.584 78.65,48.184 L78.65,47.944 C78.65,46.976 78.854,46.116 79.262,45.364 C79.67,44.612 80.246,44.032 80.99,43.624 C81.734,43.216 82.574,43.012 83.51,43.012 C84.814,43.012 85.834,43.428 86.57,44.26 C87.306,45.092 87.674,46.272 87.674,47.8 L87.674,48.724 L81.074,48.724 C81.146,49.388 81.39,49.912 81.806,50.296 C82.222,50.68 82.754,50.872 83.402,50.872 C84.41,50.872 85.174,50.488 85.694,49.72 L87.482,51.076 C87.074,51.668 86.526,52.128 85.838,52.456 C85.15,52.784 84.326,52.876 83.342,52.876 Z M83.498,45.028 C82.97,45.028 82.542,45.2 82.214,45.544 C81.886,45.888 81.682,46.388 81.602,47.044 L85.274,47.044 L85.274,46.864 C85.266,46.28 85.118,45.836 84.83,45.532 C84.542,45.228 84.098,45.028 83.498,45.028 Z M92.81,48.58 L92.018,49.408 L92.018,52.66 L89.618,52.66 L89.618,40.1 L92.018,40.1 L92.018,46.552 L92.486,45.952 L94.166,43.24 L96.986,43.24 L94.118,47.236 L97.19,52.66 L94.526,52.66 L92.81,48.58 Z M103.486,52.66 L101.086,52.66 L101.086,43.24 L103.486,43.24 L103.486,52.66 Z M100.894,40.784 C100.894,40.384 101.038,40.056 101.326,39.8 C101.614,39.544 102.002,39.416 102.49,39.416 C102.978,39.416 103.366,39.544 103.654,39.8 C103.942,40.056 104.086,40.384 104.086,40.784 C104.086,41.184 103.942,41.512 103.654,41.768 C103.366,42.024 102.978,42.152 102.49,42.152 C102.002,42.152 101.614,42.024 101.326,41.768 C101.038,41.512 100.894,41.184 100.894,40.784 Z M110.558,47.08 C110.558,45.432 110.85,44.12 111.434,43.144 C112.018,42.168 112.882,41.68 114.026,41.68 C114.97,41.68 115.71,42.044 116.246,42.772 L116.246,37.4 L118.646,37.4 L118.646,52.66 L116.45,52.66 L116.354,51.22 C115.794,52.324 114.998,52.876 113.966,52.876 C112.854,52.876 112.002,52.38 111.41,51.388 C110.818,50.396 110.522,49.044 110.522,47.332 L110.522,47.08 L110.558,47.08 Z M112.946,47.416 C112.946,48.48 113.074,49.26 113.33,49.756 C113.586,50.252 114.002,50.5 114.578,50.5 C115.346,50.5 115.882,50.148 116.186,49.444 L116.186,45.088 C115.894,44.384 115.362,44.032 114.59,44.032 C113.494,44.032 112.946,45.16 112.946,47.416 Z M123.518,52.876 C122.118,52.876 120.986,52.444 120.122,51.58 C119.258,50.716 118.826,49.584 118.826,48.184 L118.826,47.944 C118.826,46.976 119.03,46.116 119.438,45.364 C119.846,44.612 120.422,44.032 121.166,43.624 C121.91,43.216 122.75,43.012 123.686,43.012 C124.99,43.012 126.01,43.428 126.746,44.26 C127.482,45.092 127.85,46.272 127.85,47.8 L127.85,48.724 L121.25,48.724 C121.322,49.388 121.566,49.912 121.982,50.296 C122.398,50.68 122.93,50.872 123.578,50.872 C124.586,50.872 125.35,50.488 125.87,49.72 L127.658,51.076 C127.25,51.668 126.702,52.128 126.014,52.456 C125.326,52.784 124.502,52.876 123.518,52.876 Z M123.674,45.028 C123.146,45.028 122.718,45.2 122.39,45.544 C122.062,45.888 121.858,46.388 121.778,47.044 L125.45,47.044 L125.45,46.864 C125.442,46.28 125.294,45.836 125.006,45.532 C124.718,45.228 124.274,45.028 123.674,45.028 Z M137.018,52.66 L134.618,52.66 L134.618,46.54 C134.618,45.964 134.502,45.536 134.27,45.256 C134.038,44.976 133.662,44.836 133.142,44.836 C132.398,44.836 131.874,45.16 131.57,45.808 L131.57,52.66 L129.17,52.66 L129.17,43.24 L131.39,43.24 L131.474,44.332 C132.018,43.452 132.806,43.012 133.838,43.012 C134.83,43.012 135.594,43.3 136.13,43.876 C136.666,44.452 136.938,45.28 136.946,46.36 L136.946,52.66 L137.018,52.66 Z M147.83,48.004 C147.83,49.38 147.518,50.48 146.894,51.304 C146.27,52.128 145.398,52.54 144.278,52.54 C143.334,52.54 142.586,52.2 142.034,51.52 L141.938,52.66 L139.718,52.66 L139.718,40.1 L142.118,40.1 L142.118,44.296 C142.646,43.44 143.366,43.012 144.278,43.012 C145.422,43.012 146.302,43.424 146.918,44.248 C147.534,45.072 147.842,46.208 147.842,47.656 L147.842,48.004 L147.83,48.004 Z M145.442,47.608 C145.442,46.728 145.314,46.08 145.058,45.664 C144.802,45.248 144.398,45.04 143.846,45.04 C143.07,45.04 142.534,45.392 142.238,46.096 L142.238,49.324 C142.546,50.044 143.086,50.404 143.858,50.404 C144.886,50.404 145.442,49.48 145.442,47.632 L145.442,47.608 Z M156.962,49.132 C156.962,48.74 156.79,48.436 156.446,48.22 C156.102,48.004 155.482,47.8 154.586,47.608 C152.042,47.072 150.77,45.964 150.77,44.284 C150.77,43.348 151.162,42.576 151.946,41.968 C152.73,41.36 153.75,41.056 155.006,41.056 C156.334,41.056 157.402,41.36 158.21,41.968 C159.018,42.576 159.422,43.384 159.422,44.392 L157.01,44.392 C157.01,43.984 156.886,43.644 156.638,43.372 C156.39,43.1 155.99,42.964 155.438,42.964 C154.958,42.964 154.582,43.076 154.31,43.3 C154.038,43.524 153.902,43.808 153.902,44.152 C153.902,44.472 154.054,44.728 154.358,44.92 C154.662,45.112 155.166,45.28 155.87,45.424 C156.574,45.568 157.17,45.732 157.658,45.916 C159.042,46.452 159.734,47.352 159.734,48.616 C159.734,49.576 159.322,50.34 158.498,50.908 C157.674,51.476 156.61,51.76 155.306,51.76 C154.418,51.76 153.634,51.608 152.954,51.304 C152.274,51 151.742,50.588 151.358,50.068 C150.974,49.548 150.782,48.988 150.782,48.388 L153.062,48.388 C153.086,48.86 153.258,49.228 153.578,49.492 C153.898,49.756 154.354,49.888 154.946,49.888 C155.49,49.888 155.902,49.784 156.182,49.576 C156.462,49.368 156.602,49.084 156.602,48.724 L156.962,49.132 Z"
    transform="translate(-3 -1)"/>
  </g>
</svg>